<?xml version="1.0" encoding="UTF-8" standalone="no"?>
<svg xmlns="http://www.w3.org/2000/svg" width="600" height="1200" viewBox="0 0 600 1200">
  <title>Product Purchase Activity Diagram</title>
  <style>
    .activity-node {
      fill: lightyellow;
      stroke: black;
      stroke-width: 1;
    }
    .decision-node {
      fill: lightcoral;
      stroke: black;
      stroke-width: 1;
    }
    .text {
      font-family: Arial, sans-serif;
      font-size: 12px;
      text-anchor: middle;
    }
    .line {
      stroke: black;
      stroke-width: 1;
      marker-end: url(#arrowhead);
    }
    .guard {
      font-family: Arial, sans-serif;
      font-size: 10px;
      fill: blue;
    }
  </style>

  <defs>
    <marker id="arrowhead" markerWidth="10" markerHeight="7" refX="9" refY="3.5" orient="auto">
      <polygon points="0 0, 10 3.5, 0 7" />
    </marker>
  </defs>

  <!-- Start Node -->
  <circle cx="300" cy="50" r="20" fill="black"/>

  <!-- Activities and Decisions -->
  <rect x="200" y="100" width="200" height="40" rx="10" class="activity-node"/>
  <text x="300" y="125" class="text">Browse Products</text>
  <line x1="300" y1="70" x2="300" y2="100" class="line"/>

  <rect x="200" y="170" width="200" height="40" rx="10" class="activity-node"/>
  <text x="300" y="195" class="text">Select Product</text>
  <line x1="300" y1="140" x2="300" y2="170" class="line"/>

  <rect x="200" y="240" width="200" height="40" rx="10" class="activity-node"/>
  <text x="300" y="265" class="text">Select Size and Color</text>
  <line x1="300" y1="210" x2="300" y2="240" class="line"/>

  <polygon points="300,310 350,360 300,410 250,360" class="decision-node"/>
  <text x="300" y="365" class="text">Size and Color Selected?</text>
  <line x1="300" y1="280" x2="300" y2="310" class="line"/>

  <line x1="250" y1="360" x2="150" y2="360" class="line"/>
  <text x="200" y="350" class="guard">[No]</text>
  <rect x="50" y="340" width="100" height="40" rx="10" class="activity-node"/>
  <text x="100" y="365" class="text">Show Error</text>
  <line x1="100" y1="340" x2="100" y2="260" class="line"/> <!-- Loop back to select size/color -->
  <line x1="100" y1="260" x2="200" y2="260" class="line"/>

  <line x1="350" y1="360" x2="450" y2="360" class="line"/>
  <text x="400" y="350" class="guard">[Yes]</text>
  <rect x="450" y="340" width="100" height="40" rx="10" class="activity-node"/>
  <text x="500" y="365" class="text">Add to Cart</text>

  <rect x="200" y="440" width="200" height="40" rx="10" class="activity-node"/>
  <text x="300" y="465" class="text">View Cart</text>
  <line x1="500" y1="380" x2="500" y2="465" class="line"/>
  <line x1="500" y1="465" x2="400" y2="465" class="line"/>

  <polygon points="300,510 350,560 300,610 250,560" class="decision-node"/>
  <text x="300" y="565" class="text">Cart Empty?</text>
  <line x1="300" y1="480" x2="300" y2="510" class="line"/>

  <line x1="250" y1="560" x2="150" y2="560" class="line"/>
  <text x="200" y="550" class="guard">[Yes]</text>
  <rect x="50" y="540" width="100" height="40" rx="10" class="activity-node"/>
  <text x="100" y="565" class="text">Show Empty Cart</text>
  <line x1="100" y1="580" x2="100" y2="125" class="line"/> <!-- Loop back to browse products -->
  <line x1="100" y1="125" x2="200" y2="125" class="line"/>

  <line x1="350" y1="560" x2="450" y2="560" class="line"/>
  <text x="400" y="550" class="guard">[No]</text>

  <rect x="200" y="640" width="200" height="40" rx="10" class="activity-node"/>
  <text x="300" y="665" class="text">Adjust Quantities (Optional)</text>
  <line x1="300" y1="610" x2="300" y2="640" class="line"/>

  <rect x="200" y="710" width="200" height="40" rx="10" class="activity-node"/>
  <text x="300" y="735" class="text">Proceed to Checkout</text>
  <line x1="300" y1="680" x2="300" y2="710" class="line"/>

  <rect x="200" y="780" width="200" height="40" rx="10" class="activity-node"/>
  <text x="300" y="805" class="text">Enter Shipping Information</text>
  <line x1="300" y1="750" x2="300" y2="780" class="line"/>

  <rect x="200" y="850" width="200" height="40" rx="10" class="activity-node"/>
  <text x="300" y="875" class="text">Enter Payment Information</text>
  <line x1="300" y1="820" x2="300" y2="850" class="line"/>

  <polygon points="300,920 350,970 300,1020 250,970" class="decision-node"/>
  <text x="300" y="975" class="text">Payment Successful?</text>
  <line x1="300" y1="890" x2="300" y2="920" class="line"/>

  <line x1="250" y1="970" x2="150" y2="970" class="line"/>
  <text x="200" y="960" class="guard">[No]</text>
  <rect x="50" y="950" width="100" height="40" rx="10" class="activity-node"/>
  <text x="100" y="975" class="text">Show Error</text>
  <line x1="100" y1="950" x2="100" y2="875" class="line"/> <!-- Loop back to payment info -->
  <line x1="100" y1="875" x2="200" y2="875" class="line"/>

  <line x1="350" y1="970" x2="450" y2="970" class="line"/>
  <text x="400" y="960" class="guard">[Yes]</text>

  <rect x="200" y="1050" width="200" height="40" rx="10" class="activity-node"/>
  <text x="300" y="1075" class="text">Show Order Confirmation</text>
  <line x1="300" y1="1020" x2="300" y2="1050" class="line"/>

  <!-- End Node -->
  <circle cx="300" cy="1130" r="20" stroke="black" stroke-width="2" fill="white"/>
  <circle cx="300" cy="1130" r="15" fill="black"/>
  <line x1="300" y1="1090" x2="300" y2="1110" class="line"/>
</svg>
