<?xml version="1.0" encoding="UTF-8" standalone="no"?>
<svg xmlns="http://www.w3.org/2000/svg" width="900" height="900" viewBox="0 0 900 900">
  <title>Product Purchase Sequence Diagram</title>
  <style>
    .lifeline {
      stroke: black;
      stroke-width: 1;
      stroke-dasharray: 5,5;
    }
    .activation-box {
      fill: lightblue;
      stroke: black;
      stroke-width: 1;
    }
    .message {
      stroke: black;
      stroke-width: 1;
      marker-end: url(#arrowhead);
    }
    .return-message {
      stroke: black;
      stroke-width: 1;
      stroke-dasharray: 5,5;
      marker-end: url(#arrowhead);
    }
    .message-text {
      font-family: Arial, sans-serif;
      font-size: 10px;
      fill: black;
    }
    .participant-box {
      fill: lightyellow;
      stroke: black;
      stroke-width: 1;
    }
    .participant-text {
      font-family: Arial, sans-serif;
      font-size: 12px;
      text-anchor: middle;
      fill: black;
    }
  </style>

  <defs>
    <marker id="arrowhead" markerWidth="10" markerHeight="7" refX="9" refY="3.5" orient="auto">
      <polygon points="0 0, 10 3.5, 0 7" />
    </marker>
  </defs>

  <!-- Participants -->
  <rect x="50" y="30" width="100" height="40" class="participant-box"/>
  <text x="100" y="55" class="participant-text">User</text>
  <line x1="100" y1="70" x2="100" y2="850" class="lifeline"/>

  <rect x="200" y="30" width="100" height="40" class="participant-box"/>
  <text x="250" y="55" class="participant-text">ProductPage</text>
  <line x1="250" y1="70" x2="250" y2="850" class="lifeline"/>

  <rect x="350" y="30" width="100" height="40" class="participant-box"/>
  <text x="400" y="55" class="participant-text">CartContext</text>
  <line x1="400" y1="70" x2="400" y2="850" class="lifeline"/>

  <rect x="500" y="30" width="100" height="40" class="participant-box"/>
  <text x="550" y="55" class="participant-text">CartPage</text>
  <line x1="550" y1="70" x2="550" y2="850" class="lifeline"/>

  <rect x="650" y="30" width="100" height="40" class="participant-box"/>
  <text x="700" y="55" class="participant-text">CheckoutPage</text>
  <line x1="700" y1="70" x2="700" y2="850" class="lifeline"/>

  <rect x="800" y="30" width="100" height="40" class="participant-box"/>
  <text x="850" y="55" class="participant-text">Backend API</text>
  <line x1="850" y1="70" x2="850" y2="850" class="lifeline"/>

  <!-- Messages -->
  <!-- View Product -->
  <line x1="100" y1="100" x2="250" y2="100" class="message"/>
  <text x="175" y="90" class="message-text">1. View Product</text>
  <rect x="245" y="100" width="10" height="150" class="activation-box"/>

  <!-- Select Size and Color -->
  <line x1="100" y1="130" x2="250" y2="130" class="message"/>
  <text x="175" y="120" class="message-text">2. Select Size and Color</text>

  <!-- Click Add to Cart -->
  <line x1="100" y1="160" x2="250" y2="160" class="message"/>
  <text x="175" y="150" class="message-text">3. Click Add to Cart</text>

  <!-- handleAddToCart validation -->
  <line x1="255" y1="180" x2="290" y2="180" class="message"/>
  <line x1="290" y1="180" x2="290" y2="200" class="message"/>
  <line x1="290" y1="200" x2="255" y2="200" class="message"/>
  <text x="310" y="190" class="message-text">4. Validate selections</text>

  <!-- ProductPage calls CartContext.addToCart -->
  <line x1="255" y1="230" x2="400" y2="230" class="message"/>
  <text x="330" y="220" class="message-text">5. addToCart(product)</text>
  <rect x="395" y="230" width="10" height="40" class="activation-box"/>

  <!-- CartContext updates state -->
  <line x1="405" y1="250" x2="440" y2="250" class="message"/>
  <line x1="440" y1="250" x2="440" y2="270" class="message"/>
  <line x1="440" y1="270" x2="405" y2="270" class="message"/>
  <text x="460" y="260" class="message-text">6. Update cart state</text>

  <!-- Navigate to Cart -->
  <line x1="100" y1="300" x2="550" y2="300" class="message"/>
  <text x="325" y="290" class="message-text">7. Navigate to Cart</text>
  <rect x="545" y="300" width="10" height="150" class="activation-box"/>

  <!-- CartPage gets items from CartContext -->
  <line x1="555" y1="330" x2="400" y2="330" class="message"/>
  <text x="480" y="320" class="message-text">8. Get cart items</text>
  <rect x="395" y="330" width="10" height="30" class="activation-box"/>
  <line x1="400" y1="360" x2="555" y2="360" class="return-message"/>
  <text x="480" y="350" class="message-text">9. Return cart items</text>

  <!-- Update quantities (optional) -->
  <line x1="100" y1="390" x2="550" y2="390" class="message"/>
  <text x="325" y="380" class="message-text">10. Update quantities</text>
  <line x1="555" y1="410" x2="400" y2="410" class="message"/>
  <text x="480" y="400" class="message-text">11. updateQuantity(id, qty)</text>
  <rect x="395" y="410" width="10" height="30" class="activation-box"/>

  <!-- Proceed to Checkout -->
  <line x1="100" y1="460" x2="550" y2="460" class="message"/>
  <text x="325" y="450" class="message-text">12. Proceed to Checkout</text>

  <!-- Navigate to Checkout -->
  <line x1="555" y1="480" x2="700" y2="480" class="message"/>
  <text x="630" y="470" class="message-text">13. Navigate to Checkout</text>
  <rect x="695" y="480" width="10" height="320" class="activation-box"/>

  <!-- CheckoutPage gets items from CartContext -->
  <line x1="705" y1="510" x2="400" y2="510" class="message"/>
  <text x="550" y="500" class="message-text">14. Get cart items</text>
  <rect x="395" y="510" width="10" height="30" class="activation-box"/>
  <line x1="400" y1="540" x2="705" y2="540" class="return-message"/>
  <text x="550" y="530" class="message-text">15. Return cart items</text>

  <!-- Enter shipping info -->
  <line x1="100" y1="570" x2="700" y2="570" class="message"/>
  <text x="400" y="560" class="message-text">16. Enter shipping information</text>

  <!-- Enter payment info -->
  <line x1="100" y1="600" x2="700" y2="600" class="message"/>
  <text x="400" y="590" class="message-text">17. Enter payment information</text>

  <!-- Submit payment -->
  <line x1="100" y1="630" x2="700" y2="630" class="message"/>
  <text x="400" y="620" class="message-text">18. Submit payment</text>

  <!-- Process payment with API -->
  <line x1="705" y1="660" x2="850" y2="660" class="message"/>
  <text x="780" y="650" class="message-text">19. Process payment</text>
  <rect x="845" y="660" width="10" height="60" class="activation-box"/>

  <!-- API returns payment result -->
  <line x1="850" y1="720" x2="705" y2="720" class="return-message"/>
  <text x="780" y="710" class="message-text">20. Return payment result</text>

  <!-- Navigate to confirmation -->
  <line x1="705" y1="750" x2="705" y2="750" class="message"/>
  <text x="750" y="740" class="message-text">21. Navigate to confirmation</text>
  <line x1="705" y1="750" x2="740" y2="750" class="message"/>
  <line x1="740" y1="750" x2="740" y2="770" class="message"/>
  <line x1="740" y1="770" x2="705" y2="770" class="message"/>

  <!-- Show confirmation to user -->
  <line x1="695" y1="800" x2="100" y2="800" class="return-message"/>
  <text x="400" y="790" class="message-text">22. Show order confirmation</text>
</svg>
