<?xml version="1.0" encoding="UTF-8" standalone="no"?>
<svg xmlns="http://www.w3.org/2000/svg" width="800" height="700" viewBox="0 0 800 700">
  <title>User Registration Sequence Diagram</title>
  <style>
    .lifeline {
      stroke: black;
      stroke-width: 1;
      stroke-dasharray: 5,5;
    }
    .activation-box {
      fill: lightblue;
      stroke: black;
      stroke-width: 1;
    }
    .message {
      stroke: black;
      stroke-width: 1;
      marker-end: url(#arrowhead);
    }
    .return-message {
      stroke: black;
      stroke-width: 1;
      stroke-dasharray: 5,5;
      marker-end: url(#arrowhead);
    }
    .message-text {
      font-family: Arial, sans-serif;
      font-size: 10px;
      fill: black;
    }
    .participant-box {
      fill: lightyellow;
      stroke: black;
      stroke-width: 1;
    }
    .participant-text {
      font-family: Arial, sans-serif;
      font-size: 12px;
      text-anchor: middle;
      fill: black;
    }
  </style>

  <defs>
    <marker id="arrowhead" markerWidth="10" markerHeight="7" refX="9" refY="3.5" orient="auto">
      <polygon points="0 0, 10 3.5, 0 7" />
    </marker>
  </defs>

  <!-- Participants -->
  <rect x="50" y="30" width="100" height="40" class="participant-box"/>
  <text x="100" y="55" class="participant-text">User</text>
  <line x1="100" y1="70" x2="100" y2="650" class="lifeline"/>

  <rect x="200" y="30" width="120" height="40" class="participant-box"/>
  <text x="260" y="55" class="participant-text">RegisterPage</text>
  <line x1="260" y1="70" x2="260" y2="650" class="lifeline"/>

  <rect x="370" y="30" width="120" height="40" class="participant-box"/>
  <text x="430" y="55" class="participant-text">AuthContext</text>
  <line x1="430" y1="70" x2="430" y2="650" class="lifeline"/>

  <rect x="540" y="30" width="120" height="40" class="participant-box"/>
  <text x="600" y="55" class="participant-text">Backend API</text>
  <line x1="600" y1="70" x2="600" y2="650" class="lifeline"/>

  <!-- Messages -->
  <!-- User fills form -->
  <line x1="100" y1="100" x2="260" y2="100" class="message"/>
  <text x="180" y="90" class="message-text">1. Enter registration details</text>
  <rect x="255" y="100" width="10" height="30" class="activation-box"/>

  <!-- User submits form -->
  <line x1="100" y1="150" x2="260" y2="150" class="message"/>
  <text x="180" y="140" class="message-text">2. Click "Create Account"</text>
  <rect x="255" y="150" width="10" height="400" class="activation-box"/>

  <!-- Form validation -->
  <line x1="265" y1="180" x2="300" y2="180" class="message"/>
  <line x1="300" y1="180" x2="300" y2="210" class="message"/>
  <line x1="300" y1="210" x2="265" y2="210" class="message"/>
  <text x="320" y="195" class="message-text">3. Validate form inputs</text>

  <!-- RegisterPage calls AuthContext.register -->
  <line x1="265" y1="240" x2="430" y2="240" class="message"/>
  <text x="350" y="230" class="message-text">4. register(name, email, password)</text>
  <rect x="425" y="240" width="10" height="250" class="activation-box"/>

  <!-- AuthContext validates input -->
  <line x1="435" y1="270" x2="470" y2="270" class="message"/>
  <line x1="470" y1="270" x2="470" y2="300" class="message"/>
  <line x1="470" y1="300" x2="435" y2="300" class="message"/>
  <text x="490" y="285" class="message-text">5. Validate input</text>

  <!-- AuthContext calls Backend API -->
  <line x1="435" y1="330" x2="600" y2="330" class="message"/>
  <text x="520" y="320" class="message-text">6. POST /api/register</text>
  <rect x="595" y="330" width="10" height="100" class="activation-box"/>

  <!-- Backend processes registration -->
  <line x1="605" y1="360" x2="640" y2="360" class="message"/>
  <line x1="640" y1="360" x2="640" y2="390" class="message"/>
  <line x1="640" y1="390" x2="605" y2="390" class="message"/>
  <text x="660" y="375" class="message-text">7. Process registration</text>

  <!-- Backend returns response -->
  <line x1="595" y1="430" x2="435" y2="430" class="return-message"/>
  <text x="520" y="420" class="message-text">8. Return user data</text>

  <!-- AuthContext updates state -->
  <line x1="435" y1="460" x2="470" y2="460" class="message"/>
  <line x1="470" y1="460" x2="470" y2="490" class="message"/>
  <line x1="470" y1="490" x2="435" y2="490" class="message"/>
  <text x="490" y="475" class="message-text">9. Update state, localStorage</text>

  <!-- AuthContext returns to RegisterPage -->
  <line x1="425" y1="520" x2="265" y2="520" class="return-message"/>
  <text x="350" y="510" class="message-text">10. Return success</text>

  <!-- RegisterPage redirects user -->
  <line x1="265" y1="550" x2="300" y2="550" class="message"/>
  <line x1="300" y1="550" x2="300" y2="580" class="message"/>
  <line x1="300" y1="580" x2="265" y2="580" class="message"/>
  <text x="320" y="565" class="message-text">11. Navigate to home page</text>

  <!-- RegisterPage shows success to user -->
  <line x1="255" y1="610" x2="100" y2="610" class="return-message"/>
  <text x="180" y="600" class="message-text">12. Redirect to home page</text>
</svg>
