<svg xmlns="http://www.w3.org/2000/svg" width="600" height="900" viewBox="0 0 600 900">
  <title>User Registration Activity Diagram</title>
  <style>
    .activity-node {
      fill: lightyellow;
      stroke: black;
      stroke-width: 1;
    }
    .decision-node {
      fill: lightcoral;
      stroke: black;
      stroke-width: 1;
    }
    .text {
      font-family: sans-serif;
      font-size: 12px;
      text-anchor: middle;
    }
    .line {
      stroke: black;
      stroke-width: 1;
      marker-end: url(#arrowhead);
    }
    .guard {
      font-family: sans-serif;
      font-size: 10px;
      fill: blue;
    }
  </style>

  <defs>
    <marker id="arrowhead" markerWidth="10" markerHeight="7" refX="0" refY="3.5" orient="auto">
      <polygon points="0 0, 10 3.5, 0 7" />
    </marker>
  </defs>

  <!-- Start Node -->
  <circle cx="300" cy="50" r="20" fill="black"/>

  <!-- Activities and Decisions -->
  <rect x="200" y="100" width="200" height="40" rx="10" class="activity-node"/>
  <text x="300" y="125" class="text">User Navigates to Register Page</text>
  <line x1="300" y1="70" x2="300" y2="100" class="line"/>

  <rect x="200" y="170" width="200" height="40" rx="10" class="activity-node"/>
  <text x="300" y="195" class="text">Enters Name, Email, Password</text>
  <line x1="300" y1="140" x2="300" y2="170" class="line"/>

  <rect x="200" y="240" width="200" height="40" rx="10" class="activity-node"/>
  <text x="300" y="265" class="text">Confirms Password</text>
  <line x1="300" y1="210" x2="300" y2="240" class="line"/>

  <rect x="200" y="310" width="200" height="40" rx="10" class="activity-node"/>
  <text x="300" y="335" class="text">Accepts Terms of Service</text>
  <line x1="300" y1="280" x2="300" y2="310" class="line"/>

  <rect x="200" y="380" width="200" height="40" rx="10" class="activity-node"/>
  <text x="300" y="405" class="text">Submits Registration Form</text>
  <line x1="300" y1="350" x2="300" y2="380" class="line"/>

  <polygon points="300,450 350,500 300,550 250,500" class="decision-node"/>
  <text x="300" y="505" class="text">Validate Input?</text>
  <line x1="300" y1="420" x2="300" y2="450" class="line"/>

  <line x1="350" y1="500" x2="450" y2="500" class="line"/>
  <text x="400" y="495" class="guard">[Valid]</text>

  <line x1="250" y1="500" x2="150" y2="500" class="line"/>
  <text x="200" y="495" class="guard">[Invalid]</text>
  <rect x="50" y="480" width="100" height="40" rx="10" class="activity-node"/>
  <text x="100" y="505" class="text">Display Error</text>
  <line x1="100" y1="520" x2="100" y2="195" class="line"/> <!-- Loop back to input -->
  <line x1="100" y1="195" x2="200" y2="195" class="line"/>

  <polygon points="500,450 550,500 500,550 450,500" class="decision-node"/>
  <text x="500" y="505" class="text">Registration Call</text>
  <line x1="450" y1="500" x2="450" y2="500" class="line"/> <!-- Connect from [Valid] -->

  <line x1="550" y1="500" x2="500" y2="580" class="line"/>
  <text x="550" y="575" class="guard">[Success]</text>

  <rect x="400" y="610" width="200" height="40" rx="10" class="activity-node"/>
  <text x="500" y="635" class="text">Redirect to Home Page</text>
  <line x1="500" y1="550" x2="500" y2="580" class="line"/> <!-- From Registration Call -->
  <line x1="500" y1="580" x2="500" y2="610" class="line"/>

  <circle cx="500" cy="680" r="20" stroke="black" stroke-width="2" fill="white"/>
  <circle cx="500" cy="680" r="15" fill="black"/> <!-- End Node -->
  <line x1="500" y1="650" x2="500" y2="660" class="line"/>

  <line x1="450" y1="500" x2="400" y2="420" class="line"/>
  <text x="380" y="455" class="guard">[Failure]</text>
  <rect x="300" y="380" width="100" height="40" rx="10" class="activity-node"/> <!-- Re-using Display Error style for consistency -->
  <text x="350" y="405" class="text">Display Error</text>
  <line x1="350" y1="420" x2="350" y2="195" class="line"/> <!-- Loop back to input -->
  <line x1="350" y1="195" x2="200" y2="195" class="line"/>

</svg>
